<mxfile modified="2021-04-12T07:04:52.638Z" host="app.diagrams.net" agent="5.0 (Macintosh; Intel Mac OS X 10_15_0) AppleWebKit/537.36 (KHTML, like Gecko) Chrome/89.0.4389.116 Safari/537.36" etag="2ZSjj_aJtPiSyQPYfhcX" version="14.1.2" type="github" pages="2">
  <diagram id="Ht1M8jgEwFfnCIfOTk4-" name="Page-1">
    <mxGraphModel dx="914" dy="568" grid="1" gridSize="10" guides="1" tooltips="1" connect="1" arrows="1" fold="1" page="1" pageScale="1" pageWidth="1169" pageHeight="827" math="0" shadow="0">
      <root>
        <mxCell id="0" />
        <mxCell id="1" parent="0" />
        <mxCell id="-jb4GTvhcN3JO9vXcqmK-2" value="" style="outlineConnect=0;dashed=0;verticalLabelPosition=bottom;verticalAlign=top;align=center;html=1;shape=mxgraph.aws3.rds_db_instance_read_replica;fillColor=#2E73B8;gradientColor=none;" vertex="1" parent="1">
          <mxGeometry x="670.25" y="120" width="49.5" height="66" as="geometry" />
        </mxCell>
        <mxCell id="-jb4GTvhcN3JO9vXcqmK-17" style="edgeStyle=orthogonalEdgeStyle;rounded=0;orthogonalLoop=1;jettySize=auto;html=1;" edge="1" parent="1" source="-jb4GTvhcN3JO9vXcqmK-6">
          <mxGeometry relative="1" as="geometry">
            <mxPoint x="670" y="159" as="targetPoint" />
          </mxGeometry>
        </mxCell>
        <mxCell id="-jb4GTvhcN3JO9vXcqmK-6" value="" style="outlineConnect=0;fontColor=#232F3E;gradientColor=none;fillColor=#3334B9;strokeColor=none;dashed=0;verticalLabelPosition=bottom;verticalAlign=top;align=center;html=1;fontSize=12;fontStyle=0;aspect=fixed;pointerEvents=1;shape=mxgraph.aws4.rds_mysql_instance;" vertex="1" parent="1">
          <mxGeometry x="400" y="120" width="78" height="78" as="geometry" />
        </mxCell>
        <mxCell id="-jb4GTvhcN3JO9vXcqmK-9" value="" style="outlineConnect=0;dashed=0;verticalLabelPosition=bottom;verticalAlign=top;align=center;html=1;shape=mxgraph.aws3.rds_db_instance;fillColor=#2E73B8;gradientColor=none;" vertex="1" parent="1">
          <mxGeometry x="90" y="120" width="50" height="66" as="geometry" />
        </mxCell>
        <mxCell id="-jb4GTvhcN3JO9vXcqmK-13" value="Aliyun RDS" style="text;html=1;align=center;verticalAlign=middle;resizable=0;points=[];autosize=1;" vertex="1" parent="1">
          <mxGeometry x="65" y="190" width="90" height="20" as="geometry" />
        </mxCell>
        <mxCell id="-jb4GTvhcN3JO9vXcqmK-14" value="" style="endArrow=classic;html=1;entryX=0.84;entryY=1.05;entryDx=0;entryDy=0;entryPerimeter=0;" edge="1" parent="1" target="-jb4GTvhcN3JO9vXcqmK-16">
          <mxGeometry width="50" height="50" relative="1" as="geometry">
            <mxPoint x="139.5" y="160" as="sourcePoint" />
            <mxPoint x="322.1099999999999" y="160" as="targetPoint" />
          </mxGeometry>
        </mxCell>
        <mxCell id="-jb4GTvhcN3JO9vXcqmK-15" value="master" style="text;html=1;align=center;verticalAlign=middle;resizable=0;points=[];autosize=1;" vertex="1" parent="1">
          <mxGeometry x="139.5" y="140" width="60" height="20" as="geometry" />
        </mxCell>
        <mxCell id="-jb4GTvhcN3JO9vXcqmK-16" value="slave&lt;br&gt;" style="text;html=1;align=center;verticalAlign=middle;resizable=0;points=[];autosize=1;" vertex="1" parent="1">
          <mxGeometry x="360" y="140" width="50" height="20" as="geometry" />
        </mxCell>
        <mxCell id="-jb4GTvhcN3JO9vXcqmK-18" value="master" style="text;html=1;align=center;verticalAlign=middle;resizable=0;points=[];autosize=1;" vertex="1" parent="1">
          <mxGeometry x="478" y="140" width="60" height="20" as="geometry" />
        </mxCell>
        <mxCell id="-jb4GTvhcN3JO9vXcqmK-19" value="slave" style="text;html=1;align=center;verticalAlign=middle;resizable=0;points=[];autosize=1;" vertex="1" parent="1">
          <mxGeometry x="635" y="140" width="50" height="20" as="geometry" />
        </mxCell>
        <mxCell id="b-rKKwaQDVVAdjt1L6Wj-1" value="MySQL on EC2" style="text;html=1;align=center;verticalAlign=middle;resizable=0;points=[];autosize=1;" vertex="1" parent="1">
          <mxGeometry x="375" y="210" width="110" height="20" as="geometry" />
        </mxCell>
        <mxCell id="b-rKKwaQDVVAdjt1L6Wj-2" value="AWS RDS" style="text;html=1;align=center;verticalAlign=middle;resizable=0;points=[];autosize=1;" vertex="1" parent="1">
          <mxGeometry x="650" y="190" width="80" height="20" as="geometry" />
        </mxCell>
        <mxCell id="b-rKKwaQDVVAdjt1L6Wj-3" value="STEP 2" style="html=1;dashed=0;whitespace=wrap;" vertex="1" parent="1">
          <mxGeometry x="90" y="30" width="100" height="50" as="geometry" />
        </mxCell>
      </root>
    </mxGraphModel>
  </diagram>
  <diagram id="5wXL69vi9-atv-aeCeoK" name="Page-2">
    <mxGraphModel dx="914" dy="568" grid="1" gridSize="10" guides="1" tooltips="1" connect="1" arrows="1" fold="1" page="1" pageScale="1" pageWidth="827" pageHeight="1169" math="0" shadow="0">
      <root>
        <mxCell id="0MjONLSKMwxl6UejQj7Z-0" />
        <mxCell id="0MjONLSKMwxl6UejQj7Z-1" parent="0MjONLSKMwxl6UejQj7Z-0" />
        <mxCell id="0MjONLSKMwxl6UejQj7Z-10" style="edgeStyle=orthogonalEdgeStyle;rounded=0;orthogonalLoop=1;jettySize=auto;html=1;" edge="1" parent="0MjONLSKMwxl6UejQj7Z-1" source="0MjONLSKMwxl6UejQj7Z-2" target="0MjONLSKMwxl6UejQj7Z-6">
          <mxGeometry relative="1" as="geometry" />
        </mxCell>
        <mxCell id="0MjONLSKMwxl6UejQj7Z-2" value="" style="outlineConnect=0;fontColor=#232F3E;gradientColor=none;fillColor=#3334B9;strokeColor=none;dashed=0;verticalLabelPosition=bottom;verticalAlign=top;align=center;html=1;fontSize=12;fontStyle=0;aspect=fixed;pointerEvents=1;shape=mxgraph.aws4.rds_mysql_instance;" vertex="1" parent="0MjONLSKMwxl6UejQj7Z-1">
          <mxGeometry x="100" y="120" width="78" height="78" as="geometry" />
        </mxCell>
        <mxCell id="0MjONLSKMwxl6UejQj7Z-4" value="&lt;pre&gt;Aliyun RDS&lt;/pre&gt;&lt;pre&gt;souce&lt;/pre&gt;" style="text;html=1;align=center;verticalAlign=middle;resizable=0;points=[];autosize=1;" vertex="1" parent="0MjONLSKMwxl6UejQj7Z-1">
          <mxGeometry x="89" y="198" width="100" height="70" as="geometry" />
        </mxCell>
        <mxCell id="0MjONLSKMwxl6UejQj7Z-11" style="edgeStyle=orthogonalEdgeStyle;rounded=0;orthogonalLoop=1;jettySize=auto;html=1;" edge="1" parent="0MjONLSKMwxl6UejQj7Z-1" source="0MjONLSKMwxl6UejQj7Z-6" target="0MjONLSKMwxl6UejQj7Z-8">
          <mxGeometry relative="1" as="geometry" />
        </mxCell>
        <mxCell id="0MjONLSKMwxl6UejQj7Z-6" value="" style="outlineConnect=0;fontColor=#232F3E;gradientColor=none;fillColor=#3334B9;strokeColor=none;dashed=0;verticalLabelPosition=bottom;verticalAlign=top;align=center;html=1;fontSize=12;fontStyle=0;aspect=fixed;pointerEvents=1;shape=mxgraph.aws4.database_migration_workflow_job;" vertex="1" parent="0MjONLSKMwxl6UejQj7Z-1">
          <mxGeometry x="350" y="120" width="50" height="78" as="geometry" />
        </mxCell>
        <mxCell id="0MjONLSKMwxl6UejQj7Z-7" value="Aws Database &lt;br&gt;Migration Service" style="text;html=1;align=center;verticalAlign=middle;resizable=0;points=[];autosize=1;" vertex="1" parent="0MjONLSKMwxl6UejQj7Z-1">
          <mxGeometry x="315" y="210" width="120" height="30" as="geometry" />
        </mxCell>
        <mxCell id="0MjONLSKMwxl6UejQj7Z-8" value="" style="outlineConnect=0;fontColor=#232F3E;gradientColor=none;fillColor=#3334B9;strokeColor=none;dashed=0;verticalLabelPosition=bottom;verticalAlign=top;align=center;html=1;fontSize=12;fontStyle=0;aspect=fixed;pointerEvents=1;shape=mxgraph.aws4.rds_instance;" vertex="1" parent="0MjONLSKMwxl6UejQj7Z-1">
          <mxGeometry x="560" y="120" width="78" height="78" as="geometry" />
        </mxCell>
        <mxCell id="0MjONLSKMwxl6UejQj7Z-12" value="&lt;pre&gt;AWS RDS&lt;/pre&gt;&lt;pre&gt;target&lt;/pre&gt;" style="text;html=1;align=center;verticalAlign=middle;resizable=0;points=[];autosize=1;" vertex="1" parent="0MjONLSKMwxl6UejQj7Z-1">
          <mxGeometry x="564" y="198" width="70" height="70" as="geometry" />
        </mxCell>
        <mxCell id="0MjONLSKMwxl6UejQj7Z-13" value="STEP 1" style="whiteSpace=wrap;html=1;" vertex="1" parent="0MjONLSKMwxl6UejQj7Z-1">
          <mxGeometry x="100" y="30" width="120" height="60" as="geometry" />
        </mxCell>
      </root>
    </mxGraphModel>
  </diagram>
</mxfile>
